<?xml version="1.0" encoding="UTF-8"?>
<svg version="1.1" viewBox="0 0 1741 2048" width="1280" height="1280" xmlns="http://www.w3.org/2000/svg">
<path transform="translate(0)" d="m0 0h1741v2048h-1741z" fill="#FDFDFD"/>
<path transform="translate(1016,93)" d="m0 0 53 1 5 2-1 18-3 21-8 32-6 18-5 12-13 27-14 24-13 19-9 12-13 16-15 16-7 8-15 15-8 7-13 12-14 11-17 13-11 8-2 4 17 12 17 14 11 9 7 7 8 7 16 15 7 7 7 8 13 15 14 18 18 27 11 19 12 23 10 22 11 33 4 18 3 22 2 33v16l-1 20-3 22-6 28-6 20-7 20-14 29-16 27-11 17-9 12-18 22-12 14-16 17-15 14-12 11-10 8-16 13-11 9-4 3 2 4 14 10 13 10 11 9 14 12 15 14 22 22 7 8 11 13 15 20 10 15 8 13 13 23 9 19 10 27 6 23 4 25 2 19 1 20v26l-2 26-4 24-6 25-10 30-15 31-12 21-11 17-12 16-12 14-14 15-7 8-14 14-8 7-14 13-11 9-15 12-15 11-7 6 2 4 10 8 16 13 14 11 15 13 12 11 22 22 9 11 11 13 14 20 12 19 10 17 10 19 9 20 11 33 5 26 5 38 1 9v9l-6 2h-52l-16-1-3-1-4-37-2-12h-244l-73-1h-23l-4 18-5 30-1 4-5 1-50-1-18-1-1-1 2-26 4-36 5-25 7-24 8-19 12-23 14-24 14-22 10-13 14-15 9-10 30-30 8-7 13-12 14-11 20-15 6-5-5-4-14-10-17-14-11-9-16-15-2-1v-2l-4-2-26-26-9-11-10-12-12-16-10-15-11-18-12-23-10-23-10-30-5-22-3-20-2-27v-25l3-36 4-24 7-28 7-20 9-20 11-21 13-21 11-16 11-14 11-13 27-30 14-14 8-7 10-9 30-23 10-7 1-2-5-5-22-15-13-11-10-9-8-7-12-11-16-16-7-8-9-10-9-11-11-14-13-20-11-19-12-22-9-19-7-19-8-30-3-16-2-18-1-16v-29l1-23 4-33 6-25 10-30 12-25 14-24 12-20 12-17 12-14 9-10 7-8 30-30 8-7 8-8 8-7 13-11 19-13 4-3h2l1-3 11-7 14-11 18-13 9-7 13-10 11-8 13-10 14-11 13-11 11-9 11-10 10-8 1-2-10-1h-100l-55-2-15-1-6-4-9-11-14-14v-2h241l7-8 11-18 12-23 9-22v-3h-230l-75-1-14-1-10-29 1-4h312l22-1 7-2 2-15 2-10 2-1z" fill="#519CE1"/>
<path transform="translate(886,1022)" d="m0 0 4 2 14 10 13 10 11 9 14 12 15 14 22 22 7 8 11 13 15 20 10 15 8 13 13 23 9 19 10 27 6 23 4 25 2 19 1 20v26l-2 26-4 24-6 25-10 30-15 31-12 21-11 17-12 16-12 14-14 15-7 8-14 14-8 7-14 13-11 9-15 12-15 11-7 6 2 4 10 8 16 13 14 11 15 13 12 11 22 22 9 11 11 13 14 20 12 19 10 17 10 19 9 20 11 33 5 26 5 38 1 9v9l-6 2h-52l-16-1-3-1-4-37-2-12h-244l-73-1h-23l-4 18-5 30-1 4-5 1-50-1-18-1-1-1 2-26 4-36 5-25 7-24 8-19 12-23 14-24 14-22 10-13 14-15 9-10 30-30 8-7 13-12 14-11 20-15 8-7 14-10 18-13 14-10 13-11 3-1v-2l12-8 16-12 13-10 17-14 14-12 11-9 10-9 8-7 12-15 10-13 4-4 4-7 7-11 13-27 5-13 4-10 3-12-85 1-179-1-54-1-11-1-2-1 8 24 14 28 4 7 3 11h2l4 8 5 5 8 11 12 14 4 5 8 7 15 14 8 7 14 12 11 9 19 14 8 6-1 2-2-1h-7l-1-4-4-1-8-4-14-4-15-7-8-6-13-9-13-10-7-6-2-1v-2l-4-1v-2l-4-2-10-7-3-1-5-6v-2l-4-2-7-6-7-9-4-4v-2h-2l-6-8-5-8-4-4-6-9-11-18-7-15-5-13-4-15-4-27-1-9v-39l3-27 4-20 9-26 11-25 5-12 7-10 3-5 7-10 10-11 10-10h2v-2l5-4h2v-2l5-4 5-6 10-8 4-4h2v-2l3-1 4-4 6-4 11-6h3v-2l9-1v-2l7-3h3l1-3h2v-2l3-3 10-5 4-3h2l4-1-3 5-11 9-14 12-17 16-10 10-1 2h197l-1-3-11-9-16-15-11-9-14-12-14-11-10-9-12-9-9-6 5-5 16-12 23-16 18-12z" fill="#8C5E9D"/>
<path transform="translate(1016,93)" d="m0 0 53 1 5 2-1 18-3 21-8 32-6 18-5 12-13 27-14 24-13 19-9 12-13 16-15 16-7 8-15 15-8 7-13 12-14 11-17 13-11 8-10 7-18 13-19 14-10 8-7 6h-2l-1 3h-2v2l-15 10-13 10-13 11-11 9-10 9-14 12-9 5-7 6-3 7-2 3h-2l-2 4-12 13-4 5-6 9-9 11-13 22-8 18-5 11-2 6v6l249 1h75l5 17 3 16h-260l-51-1-18-1h-12l-3 12-2 12-1 23 1 20 2 11 8 1h305l20-1h12v7l-5 25h-2l-1 3-14 1h-118l-168-1-30-1 5 17 8 20 12 25 7 12 3 3 7 1h231l23 2-18 24-7 8-5 1-53 1h-144l-5 1 7 8 9 9 8 7 13 12 8 7 13 11 14 11 17 13 10 7 3 3-11 9-14 10-13 10-15 10-11 8-4-2-25-17-13-11-10-9-8-7-12-11-16-16-7-8-9-10-9-11-11-14-13-20-11-19-12-22-9-19-7-19-8-30-3-16-2-18-1-16v-29l1-23 4-33 6-25 10-30 12-25 14-24 12-20 12-17 12-14 9-10 7-8 30-30 8-7 8-8 8-7 13-11 19-13 4-3h2l1-3 11-7 14-11 18-13 9-7 13-10 11-8 13-10 14-11 13-11 11-9 11-10 10-8 1-2-10-1h-100l-55-2-15-1-6-4-9-11-14-14v-2h241l7-8 11-18 12-23 9-22v-3h-230l-75-1-14-1-10-29 1-4h312l22-1 7-2 2-15 2-10 2-1z" fill="#8C5E9D"/>
<path transform="translate(600,94)" d="m0 0h37l6 2 3 6 6 28 8 24v2l89 1h231l-1 7-10 23-12 23-10 15-7 8h-236l-5-1 7 8 11 11 7 9 4 2 37 2 33 1h100l11 1-3 5-13 11-14 12-13 11-14 11-18 14-10 7-13 10-10 8-14 10-12 9-14 10-4 3v-2l-5-2-13-9-13-10-14-11-10-9-8-7-15-14-7-8-10-11-9-11-13-16-12-16-11-17-13-22-13-25-9-22-9-31-3-16-2-19v-13l4-1z" fill="#519CE1"/>
<path transform="translate(653,1405)" d="m0 0 13 1 54 1 194 1h70l-1 8-4 13-5 11-8 18-10 19-6 8-3 5-7 8-13 17-9 10-10 9-11 9-14 12-11 9-16 13-19 14-14 10-6 1-9-8-13-10-18-13-11-9-14-12-10-9-8-7-10-9-9-8-9-11-11-13-5-7v-2l-3-1-3-5v-3h-2l-3-6-3-9-12-23-7-16-4-13z" fill="#FDFDFD"/>
<path transform="translate(775,1097)" d="m0 0 3 1-5 5-11 10-11 9-7 7-8 7-24 24-11 15-4 7h-2l-1 4-9 12-10 18-12 24-7 17-1 6h330l4 9 5 22v6l-4-3h-226l-66-1-36-1h-15l-2 8-2 19v29l2 20 3 3h315l30-1 1-2-2 13-6 25-2 3v-4l-85 1-179-1-54-1-11-1-2-1 8 24 14 28 4 7 3 11h2l4 8 5 5 8 11 12 14 4 5 8 7 15 14 8 7 14 12 11 9 19 14 8 6-1 2-2-1h-7l-1-4-4-1-8-4-14-4-15-7-8-6-13-9-13-10-7-6-2-1v-2l-4-1v-2l-4-2-10-7-3-1-5-6v-2l-4-2-7-6-7-9-4-4v-2h-2l-6-8-5-8-4-4-6-9-11-18-7-15-5-13-4-15-4-27-1-9v-39l3-27 4-20 9-26 11-25 5-12 7-10 3-5 7-10 10-11 10-10h2v-2l5-4h2v-2l5-4 5-6 10-8 4-4h2v-2l3-1 4-4 6-4 11-6h3v-2l9-1v-2l7-3h3l1-3h2v-2l3-3 10-5 4-3h2z" fill="#3D76BF"/>
<path transform="translate(820,437)" d="m0 0 6 2 11 7 13 10 15 12 11 9 13 11 8 7 10 9 5 5 4 6 2 1v2l3 1 9 11 9 10 5 5 7 8 9 14 10 18 6 14 7 23v4l-38 1h-36l-247-1-3-3 1-7 5-12 8-17 6-11 9-15 8-10 6-9 7-8 11-12 1-2h2l2-4 3-7 8-7 8-4 11-10 8-7 13-11 17-14 13-10z" fill="#FDFDFD"/>
<path transform="translate(647,1294)" d="m0 0h15l36 1 70 1h222l4 4 3 19v35l-2 14-2 5-2 1-28 1h-315l-4-4-2-20v-29l3-24z" fill="#FEFEFE"/>
<path transform="translate(651,656)" d="m0 0h12l18 1 51 1h256l4 1 2 6 2 17v43l-2 10-33 2h-305l-8-2-2-5-1-6-1-27 2-23 3-15z" fill="#FEFEFE"/>
<path transform="translate(884,1651)" d="m0 0 7 6 13 11 10 8 14 11 15 13 12 11 22 22 9 11 11 13 14 20 12 19 10 17 10 19 9 20 11 33 5 26 5 38 1 9v9l-6 2h-52l-16-1-3-1-4-37-10-45h-2l-4-15-9-21-8-15-10-15-7-8-3-5-10-9-2-4-10-12-7-6-7-8-9-9-11-9-14-12-21-16-17-13-10-6 2-5 7-7 9-7 19-13 18-14z" fill="#3E6DB8"/>
<path transform="translate(986,767)" d="m0 0h1l-1 9-5 16-12 29-12 23-5 6-24-2h-231l-7-1-6-7-12-23-11-25-6-18v-5h30l168 1h118l14-1z" fill="#FEFEFE"/>
<path transform="translate(696,1183)" d="m0 0 17 2 24 1h170l27-2h12l7 8 13 21 11 23 8 24v3l-5 1h-320l-5-1v-6l10-23 13-26 8-13 8-10z" fill="#FDFDFD"/>
<path transform="translate(660,156)" d="m0 0 89 1h231l-1 7-10 23-12 23-10 15-7 8h-236l-7-2-12-17-13-24-8-20z" fill="#FDFDFD"/>
<path transform="translate(703,1808)" d="m0 0 157 1h56l24-1 8 7 10 14 10 18 9 20 4 13v4h-42l-269-1-9-3 2-9 14-29 6-10 7-11 9-10z" fill="#FEFEFE"/>
<path transform="translate(624,522)" d="m0 0 1 4-3 4h2l1 4-1 13-3 9-6 15-3 11-3 8-1 8h-2l-2 18-4 10-2 11-3 9-1 18-1 8v15l1 13 3 27 3 16 2 4 3 19 4 14 6 10 4 13 4 6 4 8v3h2l3 7 6 8 6 12 7 8 8 11 6 7 5 6 7 8 6 5 3 5 3 2v2l3 1v2l4 2 10 9 3 1 5 6 10 5 14 11 9 5v2l4 2 7 4 6 5 6 3v2l10 3 2 1 10 1 8 2v2l3 1 1 2 11 3-5 5-14 10-13 10-15 10-11 8-4-2-25-17-13-11-10-9-8-7-12-11-16-16-7-8-9-10-9-11-11-14-13-20-11-19-12-22-9-19-7-19-8-30-3-16-2-18-1-16v-29l1-23 4-33 6-25 10-30 12-25 14-24 6-10z" fill="#6A428C"/>
<path transform="translate(914,411)" d="m0 0 5 2 15 13 16 15 12 11 8 8 7 8 13 15 14 18 18 27 11 19 12 23 10 22 11 33 4 18 3 22 2 33v16l-1 20-3 22-6 28-6 20-7 20-14 29-16 27-11 17-9 12-18 22-12 14-16 17-15 14-12 11-10 8-7 6-3-1 2-2 2-5 3-4h2l1-3 7-6 6-7 4-4h2l2-5 4-5h2l2-5 3-7 2-1 1-4h2l1-4 7-11 10-14 12-20 8-16 2-6h2l1-6 5-11 3-7 6-18 1-4h2l1-8 4-10 2-12 4-14 6-28 2-20v-36l-5-33-3-12-2-13-5-15-6-20-8-20-3-9v-3l-2-1-6-15-5-13-5-8-3-8-8-16-7-20-2-2-3-7-6-11-1-3h-2l-1-5-3-1-6-9-6-8-7-8-2-4-3-1-2-3v-3l-3-1-2-7-4-6z" fill="#3D76BF"/>
<path transform="translate(820,437)" d="m0 0 6 2 11 7 13 10 15 12 11 9 13 11 8 7 10 9 5 5 4 6 2 1v2l3 1 9 11 9 10 5 5-3 1-18 2-11 1-44 1h-50l-82-1-21-1h-16l5-9 10-10 7-9h2l2-4 3-7 8-7 8-4 11-10 8-7 13-11 17-14 13-10z" fill="#EB90BB"/>
<path transform="translate(965,1194)" d="m0 0 4 1v2l9 3 17 17 8 12 13 26 3 7 3 4 4 8 3 4 5 21 2 5 3 26v34l-3 19-6 22-4 8-4 12-4 5-4 13-4 7h-2l-2 5-3 5h-2l-2 5-4 8-3 3-5 10-7 7h-2l-2 4-5 8h-2v2l-5 5-4 2-2 4-6 5h-2v3l-14 6-4 2-5 5-10 7-4 3-9 5-2 2-12 4-12 6h-2l-4-1 9-10 11-9 14-12 11-9 7-7 13-17 8-10 3-3 4-7 7-11 13-27 5-13 4-10 6-18 6-28 3-20v-35l-4-30-4-17-3-7-4-15-8-21-12-23-5-8v-3h2l3 3 3 1z" fill="#6A428C"/>
<path transform="translate(660,1877)" d="m0 0 2 3 8 2 269 1 42 1 2 1 5 17 2 10 1 6h-244l-73-1-23-1 1-11 4-17z" fill="#EB90BB"/>
<path transform="translate(993,1371)" d="m0 0 1 3-6 28-3 10-1-4-85 1-179-1-54-1-11-1-3-2-7-27 1-4 2 1h315l30-1z" fill="#EB90BB"/>
<path transform="translate(645,724)" d="m0 0h1l2 11 8 1h305l20-1h12v7l-5 25h-2l-1 3-14 1h-118l-168-1-30-1v5h-1l-4-16-4-14z" fill="#EB91BC"/>
<path transform="translate(985,122)" d="m0 0h6l-2 1 1 6-1 8-7 21-2 2-1-2h-230l-75-1-14-1-10-29 1-4h312z" fill="#EB90BB"/>
<path transform="translate(654,1262)" d="m0 0 6 1h325l4 9 5 22v6l-4-3h-226l-66-1-36-1h-16l3-17z" fill="#EB90BB"/>
<path transform="translate(660,613)" d="m0 0 1 3-1 9 249 1h75l5 17 3 16h-260l-51-1-18-1h-13v-7l5-18 1-9z" fill="#EB90BB"/>
<path transform="translate(1016,93)" d="m0 0 53 1 5 2-1 18-3 21-8 32-6 18-5 12-13 27-14 24-13 19-9 12-13 16-15 16-7 8-14 14h-3l1-6h2l2-5 7-6 2-7 3-6 1-1 2-19 4-13 2-9 4-9 7-18 4-10 1-4h2l1-8 6-20 6-30 1-4 1-8v-17l-1-7-4-4v-3h-2l-1-4 2-11-7-3 1-4 1-3z" fill="#6B438C"/>
<path transform="translate(924,880)" d="m0 0 1 3-7 7-7 8-7 7-8 7-10 9-22 18-17 14-17 13-7 5-5-1-11-8-17-13-14-11-15-13-11-10-8-7-16-15-7-7-1-3 6-1h144l53-1z" fill="#FEFEFE"/>
<path transform="translate(884,1651)" d="m0 0 7 6 13 11 10 8 14 11 15 13 12 11 22 22 9 11 11 13 14 20 12 19 10 17 10 19 9 20 11 33 5 26 4 29v9h-1l-3-14-1-7h-2v-2h-2l-3-6-6-9-5-12-13-29-9-17-12-21-13-21-10-14-14-18-11-12-4-5-8-7-15-14-9-6-8-6-3-1v-2l-4-1-17-9-20-11-21-9-9-4-2-3h-7l-2-2 2-4 19-13 18-14z" fill="#519CE1"/>
<path transform="translate(600,94)" d="m0 0h37l6 2 2 3v5l-4 1-3 10-3 8-2 10-3 17v19l4 29 2 16 5 17 6 16 5 12 3 7v4h2l4 8v3l2 1v5h2v3h2l6 13 8 12 2 4 4 5 5 4 1 4 11 10v2l4 2 7 5 4 5 3 3-4-1-14-12-12-11-13-12-7-8-10-11-9-11-13-16-12-16-11-17-13-22-13-25-9-22-9-31-3-16-2-19v-13l4-1z" fill="#3F6EB8"/>
<path transform="translate(819,1068)" d="m0 0 5 1 11 8 10 8 13 11 22 18 15 13 15 14 9 7v3l-5 1h-186l-6-1 2-4 18-18 8-7 10-9 22-18 13-10 12-9z" fill="#FEFEFE"/>
<path transform="translate(721,1520)" d="m0 0h194l5 1-2 4-10 9-11 9-14 12-11 9-16 13-19 14-14 10-6 1-9-8-13-10-18-13-11-9-14-12-10-9-8-7-10-9-3-3z" fill="#FEFEFE"/>
<path transform="translate(684,840)" d="m0 0 6 6 7 1h231l23 2-18 24-7 8-5 1-53 1h-144l-5 1 7 8 1 2-4-2-8-8-8-11-9-11-10-14-4-6z" fill="#EB90BB"/>
<path transform="translate(679,1466)" d="m0 0 3 3 9 14 1 1 241 1 16 1-2 4-7 8-13 17-6 7-6-1h-195l-5-4-9-11-11-13-5-7v-2l-3-1-3-5v-3h-2l-3-6z" fill="#EB90BB"/>
<path transform="translate(721,1150)" d="m0 0 7 1h191l-4 4 8 1 6 5v2l4 2 8 9 6 9-1 2h-12l-27 2h-170l-36-2-6-1v-2h2l2-5 6-9 9-11z" fill="#EB90BB"/>
<path transform="translate(819,1701)" d="m0 0 5 1 12 8 13 10 18 14 11 9 14 12 10 9 9 9 3 5-1 1h-176l-7-1 2-5 17-17 8-7 16-13 14-11 13-11z" fill="#FEFEFE"/>
<path transform="translate(820,437)" d="m0 0 6 2 11 7 13 10 15 12 11 9 13 11 8 7 10 9 7 7v3h-178l-5-2 2-5 14-12 11-9 7-7 10-8 13-11 14-11z" fill="#FEFEFE"/>
<path transform="translate(725,261)" d="m0 0 3 1 37 2 33 1h100l11 1-3 5-13 11-14 12-13 11-14 11-18 14-10 7-5 1-14-10-17-12-14-10-13-11-11-9-13-11-10-10z" fill="#FEFEFE"/>
<path transform="translate(699,232)" d="m0 0h225l16 1-6 8-13 16-12 12-1-2-10-1h-100l-55-2-15-1-6-4-9-11-14-14z" fill="#EB91BB"/>
<path transform="translate(731,1773)" d="m0 0v3l-1 2h185l7 6 8 10 3 5 10 9-1 2-2-1-24 1h-57l-158-1 24-32z" fill="#EB90BB"/>
<path transform="translate(654,1262)" d="m0 0 6 1h325l4 9 3 12v5l-2-2-2-6-3 1-4-3v-2l-12-1h-16l-14-1v-2l-15 1h-31l-5-1-10 1-3-1-7 1h-44l-3 1-4-1h-9l-5 1h-53l-5-1-3 1-8-1-21-1-47-1-6-3-6 3-3 6-1-3z" fill="#DA82B1"/>
<path transform="translate(660,613)" d="m0 0 1 3-1 9 249 1h75l-1 7-11 4h-8l-13-2h-25l-2-1-8 1h-11l-4 1h-16l-1-1-6 1-31-1-16 1-7-1-13 1h-4-19l-3 1-9-1-5 1-5-1-3 1-4-1-3 1-4-1-4 1-4-1-4 1-8-1h-17l-5 1-14 1-1-2-4 2-8 1-14 3h-7l-5 2-1 2h-2l-2 4h-1l1-8 3-10 1-9z" fill="#D881B0"/>
<path transform="translate(833,233)" d="m0 0h89l13 1 3 2-9 11-8 10-4 3-10-4h-2v-2l-7-1-2-1-13-1-4-2-16-1-7-1-6 2-8 1h-21l-8-1-7 1h-13l-17-2-7-5-10-1v-2h-8v-3h-6l-2-2 16-1z" fill="#D881B0"/>
<path transform="translate(643,97)" d="m0 0 2 2v5l-4 1-3 10-3 8-2 10-3 17v19l4 29 2 16 5 17 6 16 5 12 3 7v4h2l4 8v3l2 1v5h2v3h2l6 13 8 12 2 4 4 5 5 4v2l-4-2-9-8-7-8-1-3-5-5-5-7-2-7-4-6v-4h-2l-7-14-2-3-9-15-5-11-5-14v-5l-3 1-5-15 2-1-2-12 1-4-1-5-1-14 1-8v-10l-4-1-1-3 2-5-2-4 3-8-1-4 7-8 6-7 5-4 2-5 3-3h5z" fill="#3D76BF"/>
<path transform="translate(721,1150)" d="m0 0 7 1h191l-4 4 8 1 6 5v2l4 2 6 6-1 3h-2l-3-3-9-3-6-3h-10l-6-1h-10l-7-1-16 1h-24l-2 1-11-1h-19l-11-1-20-1-5-1-3 1-10-3-9 1-9-1h-10l-10 2-7 1 1-4-9 3 6-7z" fill="#D780AF"/>
<path transform="translate(738,501)" d="m0 0 2 1-7 6-1 4 4 1h149l30 1 3 2v2l3 1v2h-4l-4 2-3 1h-53l-12 1h-30l-10-1h-32l-6-1h-9l-3 1-10-2-12-1-4 2h-5l-1 3-5 4-3 3h-3v2l-8 7v-3l10-10 7-9h2l2-4 3-7 8-7z" fill="#D881B0"/>
<path transform="translate(1043,1886)" d="m0 0 3 4 7 15 3 7 5 8 2 6h2v2h2l4 14v7h2l1 9v9l-6 2h-52l-16-1-3-1v-6h1v5l4-2 1-4h2l1-4 2-5 5-2v2l13-1v2l9 1 6-1 5 1 3-6 2 1v-7l1-5-2-4h-1l-1-7v-23l-5-13z" fill="#3D76BF"/>
<path transform="translate(1056,805)" d="m0 0h1l-1 8-6 15-12 25-16 27-11 17-9 12-18 22-12 14-16 17-15 14-12 11-7 5-2-1 6-6 3-5 9-9 1-2h2l2-4 5-5h2l2-4 3-4 5-1 2-4 6-8 5-4 3-7h2l1-5 8-11 11-16 4-6h2l1-4 9-14 6-12 5-5 5-6 4-10 3-5h2l2-6 6-12v-3l4-2v-2h2v-2h3z" fill="#406FBA"/>
<path transform="translate(985,122)" d="m0 0h6l-2 1 1 6-1 8-4 13-1-2h-6l-3-3-4-1-6 1-4-1v-2l-6-1-4-3v-2l-3 1-4-2-15-2h-13l-10-1-4-1-20-1-16-1-14-1-52-1h-78v-2l243-1 19-1z" fill="#D881B0"/>
<path transform="translate(916,415)" d="m0 0 4 1 12 13 2 4h2v3h2l9 11 4 5 3 5 6 9 3 6v2h2l1 3 4 4 6 10 6 8 3 6 4 9 2 13 3 9 2 7v5h2l5 15 5 12 4 12 5 12 4 16 4 10 3 15 3 13 3 19 3 20 1 14v13l-1 15-2-1v-36l-5-33-3-12-2-13-5-15-6-20-8-20-3-9v-3l-2-1-6-15-5-13-5-8-3-8-8-16-7-20-2-2-3-7-6-11-1-3h-2l-1-5-3-1-6-9-6-8-7-8-2-4-3-1-2-3v-3l-3-1-2-7z" fill="#4082CC"/>
<path transform="translate(618,1252)" d="m0 0 1 4-6 18-6 27-3 29v27l2 20 3 22 8 23 4 8 2 6 8 14 10 13v2h2l4 7v2l4 2 5 6 5 4 4 4v2l4 1 11 9 7 9 5 4v2l4 2 4 5 16 14 2 1v2l5 2 12 8v2l3 1v2h3v2l4 2 7 5 4 1 4-1 10 6 7 4 7 3 12 8 1 2h-7l-1-4-4-1-8-4-14-4-15-7-8-6-13-9-13-10-7-6-2-1v-2l-4-1v-2l-4-2-10-7-3-1-5-6v-2l-4-2-7-6-7-9-4-4v-2h-2l-6-8-5-8-4-4-6-9-11-18-7-15-5-13-4-15-4-27-1-9v-39l3-27 4-20z" fill="#3F82CC"/>
<path transform="translate(838,1684)" d="m0 0 2 1v3h7l2 4 4 1 19 8 16 8 15 8 14 8 3 1v2l4 1 11 8 8 6 16 15 7 6 7 8 9 10 2 5-3-1-6-8-5-6-6-5-2-4-4-1-3-3v-2l-5-2v-2l-5-2-2-1v-2l-5-1-13-10-11-6v-2l-8-1-20-5-11-5-16-5-13-9-2-7-5-1-4 1-5-2-1-3z" fill="#3D76BF"/>
<path transform="translate(775,1097)" d="m0 0 3 1-5 5-11 10-11 9-7 7-8 7-8 3-3 1-3 3h-2v2h-6v2l-15 6-8 7-1 2h-2l-2 4-7 6h-2l-1 3-11 9-13 13h-2l-2 4-8 10-1 3h-2l-1 4-4 7-1-3 6-12 4-5 3-5 7-10 10-11 10-10h2v-2l5-4h2v-2l5-4 5-6 10-8 4-4h2v-2l3-1 4-4 6-4 11-6h3v-2l9-1v-2l7-3h3l1-3h2v-2l3-3 10-5 4-3h2z" fill="#4083CD"/>
<path transform="translate(1e3 498)" d="m0 0 5 5 10 14 13 21 12 22 13 27 9 25-1 3-4-4-6-12-3-3-2-4h-3l1-5-4-7-4-2v2h2l3 6-4-2-6-7-8-20-3-11-6-9-4-11-2-4-4-4-2-5-1-3z" fill="#4C6DB5"/>
<path transform="translate(1035,736)" d="m0 0h1v12l-3 23-4 15-3 19-3 14-1 4-3 8-4 12-4 9-5 11-6 13-3 7-2 4h-2l-1 5-4 7h-2l-1 4-4 5-3 7h-2l-2 9-1 3h-2l-1 5-5 6-4 8h-2v3h-2v3l-5 5-2 3h-2l-1 3-5 4-1 2h-2l-2 4-9 9-3 5-4 5-9 9-3-1 2-2 2-5 3-4h2l1-3 7-6 6-7 4-4h2l2-5 4-5h2l2-5 3-7 2-1 1-4h2l1-4 7-11 10-14 12-20 8-16 2-6h2l1-6 5-11 3-7 6-18 1-4h2l1-8 4-10 2-12 4-14 6-28z" fill="#4083CD"/>
<path transform="translate(580,608)" d="m0 0 1 4-3 10h3l1 6-3 6-3 2-2 6-2 24v33l1 34 5 18 2 16 1 1 2 12 5 18v7h2l1 7h-2v-2l-6-1-6-19-6-26-3-24-1-16v-29l1-23 4-33 6-25z" fill="#8C64A3"/>
<path transform="translate(640,101)" d="m0 0h4l1 3-4 1-3 10-3 8-2 10-3 17v19l4 29 2 16 5 17 6 16 5 12 3 7v4h2l4 8v3l2 1v5h2v3h2l6 13 8 12 2 4 4 5 5 4v2l-4-2-9-8-7-8-6-11-3-6-4-9v-4h-2l-4-11-2-3-3-10-5-10-2-7-4-10-3-11-4-20-4-27v-8l-1-9 1-5-1-6h2l-1-3 3-16 3-10 5-12z" fill="#4083CD"/>
<path transform="translate(654,1258)" d="m0 0 1 4-6 19-4 22-2 19v29l3 27 10 37 2 8-2-1-1-6h-2l-4-9-4-8v-4h-2l-4-19-1-22v-45l3-10 2-15 4-11 2-9 3-3h2z" fill="#4083CD"/>
<path transform="translate(1054,1911)" d="m0 0 3 3 4 6 2 6h2v2h2l4 14v7h2l1 9v9l-6 2h-52l-16-1v-1l27-1 1-1h10l12 1 9-1v-3h2l1-4 1-2v-10l-2-14-7-19z" fill="#4287D0"/>
<path transform="translate(738,501)" d="m0 0 2 1-7 6-1 4 4 1h149l30 1 1 3-4-1h-17l-8 2h-9l-16-2-128-1-7-1 1-5 8-7z" fill="#EB90BB"/>
<path transform="translate(660,613)" d="m0 0 1 3-1 9 249 1h74l-1 2h-135l-190-1 1-9z" fill="#EB90BB"/>
<path transform="translate(984,1257)" d="m0 0h2l11 33 2 20v45l-3 18-4 20-4 13-1-4 6-28 3-20v-35l-4-30-4-17-3-7z" fill="#9A68A3"/>
<path transform="translate(647,1281)" d="m0 0h1l-1 12-2 10-2 19v29l3 27 10 37 2 8-2-1-6-17-5-13-3-18-2-14v-40l3-23z" fill="#529DE2"/>
<path transform="translate(618,1252)" d="m0 0 1 4-6 18-6 27-3 29v27l2 20 3 22 8 23 4 8v5l-4-4-6-16-4-15-4-27-1-9v-39l3-27 4-20z" fill="#4083CD"/>
<path transform="translate(1068,711)" d="m0 0h1l2 8h1l1-5h1v20l-2 17-4-3-1 2h-2l-2-7v-8l2-15 1-8z" fill="#4185CE"/>
<path transform="translate(837,1687)" d="m0 0 8 1 4 2v2l4 1 19 8 16 8 15 8 14 8 3 1v2l4 1 7 5-4 1-5-3v-2l-6-2-10-6-12-7-10-4-6-3v-2h-6v-2l-10-3-6-2v-2h-5l-9-3-6-3z" fill="#4083CD"/>
<path transform="translate(721,1150)" d="m0 0 7 1h165l20 1v1h-147l-42 1h-4z" fill="#EB90BB"/>
<path transform="translate(720,1783)" d="m0 0 2 4v2l6 2 3 2v2l2 2 1 4-4 1h-23l6-9z" fill="#D881B0"/>
<path transform="translate(936,1494)" d="m0 0h6l-2 4-10 13-6-1-3-2v-3h-2l2-4 4-2h4l2-4z" fill="#D881B0"/>
<path transform="translate(672,1456)" d="m0 0 4 2 3 6 3 11h2l4 8 5 5 5 10-4-2-9-7-4-5-3-6-3-13-3-6z" fill="#416DB7"/>
<path transform="translate(914,411)" d="m0 0 5 2 15 13 16 15 12 11 8 8 7 8 3 3v2l-4-2-12-13-17-17-8-7-4-3v-2l-4-2-13-12z" fill="#C47AAD"/>
<path transform="translate(580,608)" d="m0 0 1 4-3 10h3l1 6-3 6-3 2-2 6-2 22-3 4 1-15 4-24z" fill="#8E66A4"/>
<path transform="translate(743,1543)" d="m0 0 4 2 15 13 11 9 19 14 8 6-1 2-21-14-14-11-7-7-8-7z" fill="#CD7DAE"/>
<path transform="translate(654,1898)" d="m0 0 1 2 4 1 2 4h6l1 4h-2l-1 3-11 3h-3l1-10z" fill="#D881B0"/>
<path transform="translate(654,1222)" d="m0 0h2v2l2 1v8l-2 8h2v9h-3v-2h-2l-2-6-2-11h3v-6z" fill="#3D6DB8"/>
<path transform="translate(654,1258)" d="m0 0 1 4-6 19h-2l-1 7-3 11h-1v-8l2-10 3-8 2-9 3-3h2z" fill="#4388D1"/>
<path transform="translate(738,501)" d="m0 0 2 1-7 6-1 4 4 1 34 1v1h-36l-7-1 1-5 8-7z" fill="#EC91BC"/>
<path transform="translate(713,234)" d="m0 0h17l-1 2h-2v2l-4 2h-6v-2h-2l-1 2-1-4z" fill="#D881B0"/>
<path transform="translate(743,1543)" d="m0 0 4 2 15 13 6 5v3l-4-2-7-7-8-7z" fill="#C07AAE"/>
<path transform="translate(672,1456)" d="m0 0 4 2 3 6 3 11h2l3 6-1 2-4-5-5-8-5-11z" fill="#6575B8"/>
<path transform="translate(938,971)" d="m0 0v3l-4 5-2 5-10 8-2-1 6-6 3-5z" fill="#3D76BF"/>
<path transform="translate(980,473)" d="m0 0 5 4 9 11 4 5-1 4-5-4-4-6v-3l-4-3-3-5z" fill="#7072B4"/>
<path transform="translate(697,338)" d="m0 0 4 1 3 3v2l4 2 7 5 4 5 3 3-4-1-21-18z" fill="#4582CA"/>
<path transform="translate(656,477)" d="m0 0 3 1-4 7h-2v2l-6 4-2 3h-2l-1 3-1-3 11-12z" fill="#785197"/>
<path transform="translate(961,1761)" d="m0 0 4 2 9 10 10 12-1 2-4-4-7-8-8-8z" fill="#3E7AC4"/>
<path transform="translate(918,1781)" d="m0 0 5 5 8 9-2 2-8-3-1-9z" fill="#D881B0"/>
<path transform="translate(653,1264)" d="m0 0 2 1h9v3l-4-1v2l-6 3-3 6-1-3z" fill="#D982B1"/>
<path transform="translate(994,1373)" d="m0 0h2l-4 20-4 13-1-4 6-28z" fill="#8C5E9D"/>
<path transform="translate(858,1727)" d="m0 0 4 1 14 11 9 8-1 2-14-12-12-9z" fill="#A165A0"/>
<path transform="translate(572,640)" d="m0 0h1v15l-1 9-3 4 1-15z" fill="#966EAA"/>
<path transform="translate(646,734)" d="m0 0 3 6 1 9 2 5 1 10-2-2-5-18z" fill="#D881B0"/>
<path transform="translate(914,411)" d="m0 0 5 2 15 13 1 2-4-1-13-12z" fill="#C181B4"/>
<path transform="translate(668,1211)" d="m0 0 1 3-3 6-4 2-1-3 3-7z" fill="#3E6DB8"/>
<path transform="translate(874,1561)" d="m0 0 2 1-6 7-8 6h-2l2-4z" fill="#7A579B"/>
<path transform="translate(933,428)" d="m0 0 4 1 12 11 3 3-1 2-14-13-2-1v-2z" fill="#A771AA"/>
<path transform="translate(940,1805)" d="m0 0 4 2 11 15-1 2-9-11z" fill="#9B67A3"/>
<path transform="translate(679,1466)" d="m0 0 3 3 7 11-1 4-4-6v-3h-2l-3-6z" fill="#C77BAD"/>
<path transform="translate(1034,1819)" d="m0 0h2l6 11-1 4-6-10z" fill="#468BD4"/>
<path transform="translate(984,1891)" d="m0 0 2 3 3 14h-2l-2-3-1-8z" fill="#D881B0"/>
<path transform="translate(785,1577)" d="m0 0 4 2 11 8-1 2-12-8z" fill="#D886B5"/>
<path transform="translate(687,327)" d="m0 0 7 6 4 5h-3l-9-8z" fill="#6375B9"/>
<path transform="translate(931,981)" d="m0 0h2l-2 4-9 7-2-1z" fill="#467AC2"/>
<path transform="translate(727,1531)" d="m0 0 7 4 4 2-2 2-4-1-5-4z" fill="#536EB5"/>
<path transform="translate(967,460)" d="m0 0h3l7 8 3 3v2l-4-2-9-10z" fill="#B06FA7"/>
<path transform="translate(650,125)" d="m0 0h2l3 5 1 12-2-3-4-12z" fill="#D37EAE"/>
<path transform="translate(1043,1886)" d="m0 0 3 4 5 11v2l-3-1-5-13z" fill="#3E7AC3"/>
<path transform="translate(947,334)" d="m0 0h2l-2 4-6 6-3-1 7-7h2z" fill="#7D4E93"/>
<path transform="translate(961,1761)" d="m0 0 4 2 7 8-2 1-6-5z" fill="#3E7DC6"/>
<path transform="translate(738,501)" d="m0 0 2 1-12 10v-3l8-7z" fill="#DE85B3"/>
</svg>
